<?xml version="1.0" encoding="UTF-8" standalone="no"?>
<svg
   id="svg4081"
   viewBox="0 0 27.148001 40.999621"
   version="1.1"
   width="27.148001"
   height="40.999622"
   xmlns="http://www.w3.org/2000/svg"
   xmlns:svg="http://www.w3.org/2000/svg"
   xmlns:rdf="http://www.w3.org/1999/02/22-rdf-syntax-ns#"
   xmlns:cc="http://creativecommons.org/ns#"
   xmlns:dc="http://purl.org/dc/elements/1.1/">
  <defs
     id="defs4083">
    <filter
       id="filter4037"
       height="1.2481335"
       width="1.0797722"
       y="-0.12406677"
       x="-0.039886108"
       color-interpolation-filters="sRGB">
      <feGaussianBlur
         id="feGaussianBlur4039"
         stdDeviation="11.868751" />
    </filter>
  </defs>
  <g
     id="layer1"
     transform="translate(-61.257773,-99.724649)">
    <ellipse
       id="path3053"
       style="opacity:0.4906;fill:#6f8a91;stroke-width:0.0154933"
       cx="13.586434"
       cy="39.240086"
       rx="7.0343966"
       ry="1.4541305"
       transform="translate(61.257773,99.724649)" />
    <path
       id="path3969"
       filter="url(#filter4037)"
       d="m 168.65621,980.79382 c -20.785,77.13098 -51.799,144.49998 -72.654003,221.60998 2.1015,4.6742 8.866703,1.0502 12.719003,2.1875 233.25,-0.083 466.56,0.1667 699.78,-0.125 4.2968,-2.5855 -1.1212,-8.655 -1.0077,-12.491 -20.23,-74.16 -48.44,-142.55 -68.69,-216.69998 -196.02,0 -373.71,4.0362 -569.73,4.0362 l -0.27,0.96 z" />
    <path
       id="rect3020"
       fill="#dcd3ba"
       d="m 779.40233,839.2067 62.933,230.64 c 0.0643,0.2358 -0.23656,0.4411 -0.53041,0.4411 h -708.94 c -0.29385,0 -0.59221,-0.2046 -0.53041,-0.4411 l 62.067,-230.64 z" />
    <path
       id="path3795"
       opacity="0.4856"
       fill="#89d375"
       d="m 769.92847,1121.3841 c 0,-1.1136 -3.3217,-4.2151 -5.067,-4.7311 -2.3188,-0.6855 -9.2187,-4.8201 -9.2187,-5.5241 0,-0.3098 -0.40179,-0.5771 -0.89286,-0.5938 -2.6563,-0.091 -10.236,-9.2779 -11.922,-14.45 -0.64973,-1.9935 -1.5989,-3.0627 -3.6462,-4.1071 -1.5223,-0.7766 -3.2689,-1.4121 -3.8812,-1.4121 -0.61236,0 -2.7948,-0.8905 -4.8499,-1.979 -2.0551,-1.0885 -5.6651,-2.5678 -8.0222,-3.2874 -6.7148,-2.0498 -10.022,-3.9058 -14.701,-8.2492 -3.3438,-3.1039 -4.6508,-4.927 -5.6893,-7.9356 -0.74155,-2.1483 -1.3588,-4.4202 -1.3716,-5.0487 -0.0129,-0.6286 -0.94749,-2.4186 -2.077,-3.9779 -1.12951,-1.5593 -2.2762,-3.5361 -2.5481,-4.3929 -0.27195,-0.8568 -0.79421,-1.5578 -1.1606,-1.5578 -0.36637,0 -0.66615,-0.631 -0.66615,-1.4021 0,-1.9039 -6.7557,-8.343 -10.714,-10.212 -1.7679,-0.8347 -3.4713,-1.938 -3.7855,-2.4518 -0.31417,-0.5137 -1.7606,-0.9343 -3.2143,-0.9345 -4.633,-9e-4 -20.857,-4.9085 -20.857,-6.309 0,-0.3169 -0.95919,-1.6505 -2.1315,-2.9636 -1.17231,-1.3131 -2.3386,-3.0398 -2.5917,-3.8372 -0.25309,-0.7974 -1.7046,-3.4831 -3.2256,-5.9681 -2.6817,-4.3813 -2.7658,-4.718 -2.7762,-11.113 -0.01,-6.0881 -0.73063,-9.76926 -2.5034,-12.78596 -0.3851,-0.6554 -3.2716,-2.4385 -6.4145,-3.9625 -3.1429,-1.5239 -6.6229,-3.3712 -7.7334,-4.105 -1.6882,-1.1156 -4.0881,-1.4192 -14.643,-1.8523 -13.358,-0.5482 -19.644,-1.8523 -23.824,-4.9423 -1.0759,-0.7955 -2.2261,-1.4463 -2.556,-1.4463 -0.32984,0 -1.0065,-1.125 -1.5037,-2.5 -0.4972,-1.375 -1.3654,-2.5 -1.9292,-2.5 -0.56386,0 -1.0252,-0.3147 -1.0252,-0.6993 0,-0.9196 -7.8027,-8.5865 -8.7386,-8.5865 -0.61877,0 -8.4709,-3.756 -13.047,-6.2409 -0.78572,-0.4267 -3.3571,-1.1475 -5.7143,-1.6018 -4.7721,-0.9197 -10.318,-3.3679 -10.867,-4.7968 -0.19667,-0.5126 -0.72498,-0.9319 -1.174,-0.9319 -1.4014,0 -4.496,-4.5161 -5.0237,-7.3312 -0.27717,-1.4785 -0.52833,-7.8783 -0.55812,-14.222 -0.0534,-11.366 -0.0832,-11.579 -2.0572,-14.692 -1.1017,-1.7372 -3.3923,-4.5684 -5.0902,-6.2916 -1.6979,-1.7232 -4.6155,-4.7108 -6.4835,-6.6392 -1.868,-1.9284 -4.8349,-4.8322 -6.5931,-6.4529 l -2.7909,-3.8435 h 275 l 31.093,115.18996 c 16.88,62.534 29.839,114.01 29.861,114.11 0.022,0.098 -18.121,0.1786 -40.317,0.1786 -22.196,0 -40.357,-0.2745 -40.357,-0.61 z" />
    <path
       id="rect3804"
       fill="#f7fd9f"
       d="m 546.43319,866.75317 h 45 l 9.933,231.08003 h -65 z" />
    <g
       id="g3846"
       transform="translate(105.02,-618.78)"
       fill="#ffffff">
      <path
         id="rect3797"
         d="m 684.11729,1508.9977 10,40 h -590 l 10,-35 z" />
      <path
         id="rect3799"
         d="m 120.62578,1451.879 h 40 l -36.067,165.08 H 74.558784 Z" />
    </g>
    <path
       id="path3861"
       fill="none"
       d="m 746.45,498.58 62.933,230.64 c 0.0643,0.2358 -0.23656,0.4411 -0.53041,0.4411 h -708.94 c -0.29385,0 -0.59221,-0.2046 -0.53041,-0.4411 l 62.067,-230.64 z" />
    <path
       id="path4041"
       opacity="0.8"
       d="m 741.08678,812.98558 65.20608,415.19922 c 0.0666,0.4245 -0.2451,0.794 -0.54957,0.794 H 71.197053 c -0.304464,0 -0.6136,-0.3683 -0.549568,-0.794 L 134.95628,812.98558 Z"
       stroke="#000000"
       stroke-width="13.6573"
       fill="none" />
    <path
       id="path4043"
       stroke="#000000"
       stroke-width="0.741044"
       fill="#e52626"
       d="m 74.872028,100.44226 c -7.090705,0 -12.815929,5.7312 -12.815929,12.80026 0,2.22276 0.567975,4.31411 1.563628,6.13632 l 11.252871,18.83867 11.252872,-18.83867 c 0.995639,-1.82221 1.563628,-3.91356 1.563628,-6.13632 0,-7.06933 -5.725366,-12.80026 -12.815931,-12.80026 z m -0.142549,7.43897 c 0.04757,-9.7e-4 0.09468,0 0.142549,0 3.063036,0 5.546038,2.48305 5.546038,5.5461 0,3.06303 -2.483073,5.54604 -5.546038,5.54604 -3.063036,0 -5.546037,-2.48308 -5.546037,-5.54604 0,-3.01515 2.406666,-5.47015 5.403488,-5.5461 z" />
  </g>
  <metadata
     id="metadata16">
    <rdf:RDF>
      <cc:Work>
        <dc:format>image/svg+xml</dc:format>
        <dc:type
           rdf:resource="http://purl.org/dc/dcmitype/StillImage" />
        <cc:license
           rdf:resource="http://creativecommons.org/publicdomain/zero/1.0/" />
        <dc:publisher>
          <cc:Agent
             rdf:about="http://openclipart.org/">
            <dc:title>Openclipart</dc:title>
          </cc:Agent>
        </dc:publisher>
        <dc:date>2013-04-16T08:39:00</dc:date>
        <dc:description />
        <dc:source>https://openclipart.org/detail/177208/map-location-by-snodnipper-177208</dc:source>
        <dc:creator>
          <cc:Agent>
            <dc:title>snodnipper</dc:title>
          </cc:Agent>
        </dc:creator>
        <dc:subject>
          <rdf:Bag>
            <rdf:li>location</rdf:li>
            <rdf:li>map</rdf:li>
            <rdf:li>pin</rdf:li>
            <rdf:li>pinpoint</rdf:li>
            <rdf:li>point</rdf:li>
            <rdf:li>pointer</rdf:li>
          </rdf:Bag>
        </dc:subject>
      </cc:Work>
      <cc:License
         rdf:about="http://creativecommons.org/publicdomain/zero/1.0/">
        <cc:permits
           rdf:resource="http://creativecommons.org/ns#Reproduction" />
        <cc:permits
           rdf:resource="http://creativecommons.org/ns#Distribution" />
        <cc:permits
           rdf:resource="http://creativecommons.org/ns#DerivativeWorks" />
      </cc:License>
    </rdf:RDF>
  </metadata>
</svg>
